HIERARCHY
ROOT SpineBase
{
  OFFSET 0.000000 0.000000 0.000000
  CHANNELS 6 Xposition Yposition Zposition Zrotation Xrotation Yrotation
  JOINT SpineMid
  {
    OFFSET 0.000000 28.543508 -0.000000
    CHANNELS 3 Zrotation Xrotation Yrotation
    JOINT SpineShoulder
    {
      OFFSET 0.360260 21.039435 -0.824945
      CHANNELS 3 Zrotation Xrotation Yrotation
      JOINT Neck
      {
        OFFSET 0.110125 6.998786 -0.655381
        CHANNELS 3 Zrotation Xrotation Yrotation
        JOINT Head
        {
          OFFSET -2.975085 10.149013 3.102395
          CHANNELS 3 Zrotation Xrotation Yrotation
          End Site
          {
            OFFSET 0 0 0
          }
        }
      }
      JOINT ShoulderLeft
      {
        OFFSET -8.659602 -1.267157 22.856137
        CHANNELS 3 Zrotation Xrotation Yrotation
        JOINT ElbowLeft
        {
          OFFSET -3.904192 -27.868897 5.216214
          CHANNELS 3 Zrotation Xrotation Yrotation
          JOINT WristLeft
          {
            OFFSET 9.769780 -11.192277 -25.876001
            CHANNELS 3 Zrotation Xrotation Yrotation
            JOINT HandLeft
            {
              OFFSET -6.523047 -1.136459 -5.887900
              CHANNELS 3 Zrotation Xrotation Yrotation
              JOINT HandTipLeft
              {
                OFFSET 2.006975 -2.260091 -3.048113
                CHANNELS 3 Zrotation Xrotation Yrotation
                End Site
                {
                  OFFSET 0 0 0
                }
              }
              JOINT ThumbLeft
              {
                OFFSET 0.569485 3.580857 -3.043623
                CHANNELS 3 Zrotation Xrotation Yrotation
                End Site
                {
                  OFFSET 0 0 0
                }
              }
            }
          }
        }
      }
      JOINT ShoulderRight
      {
        OFFSET 2.772859 -4.627387 -13.289915
        CHANNELS 3 Zrotation Xrotation Yrotation
        JOINT ElbowRight
        {
          OFFSET 4.260239 -21.668810 -8.467025
          CHANNELS 3 Zrotation Xrotation Yrotation
          JOINT WristRight
          {
            OFFSET -1.117554 -24.386697 -3.621448
            CHANNELS 3 Zrotation Xrotation Yrotation
            JOINT HandRight
            {
              OFFSET -0.556305 -8.283785 0.835160
              CHANNELS 3 Zrotation Xrotation Yrotation
              JOINT HandTipRight
              {
                OFFSET -0.583292 -6.662965 -1.047647
                CHANNELS 3 Zrotation Xrotation Yrotation
                End Site
                {
                  OFFSET 0 0 0
                }
              }
              JOINT ThumbRight
              {
                OFFSET -1.334266 -1.849438 -5.268717
                CHANNELS 3 Zrotation Xrotation Yrotation
                End Site
                {
                  OFFSET 0 0 0
                }
              }
            }
          }
        }
      }
    }
  }
  JOINT HipLeft
  {
    OFFSET -1.971575 0.302889 0.166032
    CHANNELS 3 Zrotation Xrotation Yrotation
    JOINT KneeLeft
    {
      OFFSET -1.530927 -28.205172 -8.965054
      CHANNELS 3 Zrotation Xrotation Yrotation
      JOINT AnkleLeft
      {
        OFFSET 5.297478 -33.601105 21.713507
        CHANNELS 3 Zrotation Xrotation Yrotation
        JOINT FootLeft
        {
          OFFSET -10.429829 -3.202752 -7.027550
          CHANNELS 3 Zrotation Xrotation Yrotation
          End Site
          {
            OFFSET 0 0 0
          }
        }
      }
    }
  }
  JOINT HipRight
  {
    OFFSET 2.341594 0.748716 -7.090167
    CHANNELS 3 Zrotation Xrotation Yrotation
    JOINT KneeRight
    {
      OFFSET 6.175120 -35.431595 -2.464957
      CHANNELS 3 Zrotation Xrotation Yrotation
      JOINT AnkleRight
      {
        OFFSET 5.279801 -31.313898 0.711277
        CHANNELS 3 Zrotation Xrotation Yrotation
        JOINT FootRight
        {
          OFFSET -3.779611 -7.323533 -4.046634
          CHANNELS 3 Zrotation Xrotation Yrotation
          End Site
          {
            OFFSET 0 0 0
          }
        }
      }
    }
  }
}
MOTION
Frames: 14
Frame Time: 0.033333
18.687255 73.983127 288.459093 -0.000000 -0.000000 59.272258 0.000000 0.000000 -59.272258 -0.000000 0.000000 0.000000 -0.000000 0.000000 0.000000 0.000000 0.000000 0.000000 -0.000000 0.000000 0.000000 -0.000000 0.000000 0.000000 -0.000000 0.000000 0.000000 -0.000000 0.000000 0.000000 0.000000 0.000000 0.000000 0.000000 0.000000 0.000000 -0.000000 0.000000 0.000000 -0.000000 0.000000 0.000000 -0.000000 0.000000 0.000000 -0.000000 0.000000 0.000000 0.000000 0.000000 0.000000 0.000000 0.000000 0.000000 0.000000 0.000000 -59.272258 -0.000000 0.000000 0.000000 -0.000000 0.000000 0.000000 0.000000 0.000000 0.000000 0.000000 0.000000 -59.272258 -0.000000 0.000000 0.000000 -0.000000 0.000000 0.000000 0.000000 0.000000 0.000000
18.832682 73.188564 288.532845 0.123784 -0.166507 58.676539 0.077887 0.192304 -58.676490 -0.000000 0.000000 0.000000 -0.000000 0.000000 0.000000 0.000000 0.000000 0.000000 -0.000000 0.000000 0.000000 -0.000000 0.000000 0.000000 7.142478 -4.230650 -27.216175 -5.266354 -3.938957 21.702720 0.000000 0.000000 0.000000 0.000000 0.000000 0.000000 -3.459758 -1.299733 1.068549 -2.357836 -2.482281 -0.173406 3.109360 0.355365 -1.166884 -4.251035 3.820815 1.438940 0.000000 0.000000 0.000000 0.000000 0.000000 0.000000 -3.856405 0.633763 -57.700530 3.429876 4.502637 -0.248547 0.304833 -2.530124 0.039727 0.000000 0.000000 0.000000 0.077887 0.192304 -58.676490 -0.000000 0.000000 0.000000 -0.000000 0.000000 0.000000 0.000000 0.000000 0.000000
18.935984 72.560657 288.593575 0.192717 -0.310095 58.118466 0.161529 0.327425 -58.118406 -0.000000 0.000000 0.000000 -0.000000 0.000000 0.000000 0.000000 0.000000 0.000000 -0.000000 0.000000 0.000000 -0.000000 0.000000 0.000000 10.293370 -8.306272 -44.144770 -5.881769 -7.547880 34.779442 0.000000 0.000000 0.000000 0.000000 0.000000 0.000000 -6.801701 -2.627363 2.029757 -4.017644 -4.505353 -0.603442 4.983976 0.461534 -2.327859 -7.141780 6.535167 3.257855 0.000000 0.000000 0.000000 0.000000 0.000000 0.000000 -7.799813 0.480161 -56.289153 6.417070 9.354967 -0.694223 1.017111 -5.355583 0.406798 0.000000 0.000000 0.000000 0.161529 0.327425 -58.118406 -0.000000 0.000000 0.000000 -0.000000 0.000000 0.000000 0.000000 0.000000 0.000000
18.997161 72.099405 288.641282 0.210145 -0.433673 57.589770 0.253489 0.409849 -57.589881 -0.000000 0.000000 0.000000 -0.000000 0.000000 0.000000 0.000000 0.000000 0.000000 -0.000000 0.000000 0.000000 -0.000000 0.000000 0.000000 11.434365 -10.767288 -53.437869 -4.659566 -9.895803 41.342303 0.000000 0.000000 0.000000 0.000000 0.000000 0.000000 -9.969254 -3.947565 2.871787 -5.058099 -6.112332 -1.196131 5.644898 0.397321 -3.379892 -8.562220 8.155895 5.068102 0.000000 0.000000 0.000000 0.000000 0.000000 0.000000 -11.721938 -0.470835 -55.143448 8.912479 14.527299 -1.301937 2.242019 -8.519486 1.212208 0.000000 0.000000 0.000000 0.253489 0.409849 -57.589881 -0.000000 0.000000 0.000000 -0.000000 0.000000 0.000000 0.000000 0.000000 0.000000
19.016213 71.804808 288.675966 0.177899 -0.539480 57.082269 0.356195 0.442508 -57.082807 -0.000000 0.000000 0.000000 -0.000000 0.000000 0.000000 0.000000 0.000000 0.000000 -0.000000 0.000000 0.000000 -0.000000 0.000000 0.000000 11.840561 -12.056491 -58.582861 -3.125271 -11.405375 44.601028 0.000000 0.000000 0.000000 0.000000 0.000000 0.000000 -12.915128 -5.226277 3.590650 -5.586571 -7.383601 -1.878819 5.169847 0.258597 -4.258242 -8.453398 8.738983 6.562761 0.000000 0.000000 0.000000 0.000000 0.000000 0.000000 -15.521189 -2.194279 -54.360971 10.868478 19.979546 -2.019054 4.131444 -12.064702 2.612112 0.000000 0.000000 0.000000 1.068863 1.238418 -56.894117 0.277419 -1.031648 -0.196646 -0.000000 0.000000 0.000000 0.000000 0.000000 0.000000
18.993141 71.676866 288.697627 0.096452 -0.629219 56.587423 0.472121 0.426996 -56.588652 -0.000000 0.000000 0.000000 -0.000000 0.000000 0.000000 0.000000 0.000000 0.000000 -0.000000 0.000000 0.000000 -0.000000 0.000000 0.000000 11.952278 -12.584639 -61.341922 -1.749042 -12.437143 46.147975 0.000000 0.000000 0.000000 0.000000 0.000000 0.000000 -15.603239 -6.433578 4.189339 -5.710030 -8.409214 -2.601437 3.658307 0.135636 -4.920857 -6.792914 8.322531 7.517805 0.000000 0.000000 0.000000 0.000000 0.000000 0.000000 -19.112655 -4.631399 -54.018498 12.233733 25.658492 -2.772162 6.906229 -16.019319 4.830495 0.000000 0.000000 0.000000 1.420302 1.387118 -56.354239 0.273852 -1.321233 -0.246267 -0.000000 0.000000 0.000000 0.000000 0.000000 0.000000
18.944224 71.588081 288.616880 -0.026420 -0.583649 55.244373 0.494587 0.311014 -55.245849 -0.000000 0.000000 0.000000 -0.000000 0.000000 0.000000 0.000000 0.000000 0.000000 -0.000000 0.000000 0.000000 -0.000000 0.000000 0.000000 12.049115 -12.928861 -61.864675 -1.221443 -13.244554 46.219504 0.000000 0.000000 0.000000 0.000000 0.000000 0.000000 -18.377222 -7.737519 4.739366 -4.865869 -9.391880 -3.520720 -3.163842 0.510562 -4.976410 0.385179 5.396973 7.454509 0.000000 0.000000 0.000000 0.000000 0.000000 0.000000 -24.230893 -9.723804 -53.859555 13.028669 34.348641 -3.848111 13.044339 -22.118781 10.071227 0.000000 0.000000 0.000000 1.747239 1.535335 -54.944904 1.054171 -1.993586 -0.318227 -0.772715 0.260591 0.028177 0.000000 0.000000 0.000000
18.829410 71.774133 288.599159 -0.237680 -0.640225 54.690452 0.659829 0.176079 -54.692794 -0.000000 0.000000 0.000000 -0.000000 0.000000 0.000000 0.000000 0.000000 0.000000 -0.000000 0.000000 0.000000 -0.000000 0.000000 0.000000 11.795966 -12.014803 -59.950492 0.086162 -16.547062 45.474231 0.000000 0.000000 0.000000 0.000000 0.000000 0.000000 -20.627845 -8.819494 5.138368 -4.862908 -10.321717 -4.255766 -7.260885 0.711533 -5.047666 5.766681 1.941040 6.908010 0.000000 0.000000 0.000000 0.000000 0.000000 0.000000 -27.702654 -14.275036 -55.010550 12.453468 41.494871 -4.264365 21.192450 -27.640130 17.494208 0.000000 0.000000 0.000000 2.153755 1.574625 -54.343210 1.335248 -2.328851 -0.352125 -1.420760 -0.281699 0.518211 0.000000 0.000000 0.000000
18.668954 72.238843 288.599476 -0.476991 -0.709840 54.947707 0.855036 0.017180 -54.950790 -0.000000 0.000000 0.000000 -0.000000 0.000000 0.000000 0.000000 0.000000 0.000000 -0.000000 0.000000 0.000000 -0.000000 0.000000 0.000000 11.131254 -10.044625 -58.141457 1.045254 -14.359122 42.107843 0.000000 0.000000 0.000000 0.000000 0.000000 0.000000 -22.197158 -9.599206 5.385146 -4.276388 -10.980037 -4.871797 -10.123264 0.740963 -4.869407 13.256089 -1.941770 4.730770 0.000000 0.000000 0.000000 0.000000 0.000000 0.000000 -29.752076 -17.630336 -56.962672 10.789821 46.519269 -3.819189 29.960946 -31.494480 25.620452 0.000000 0.000000 0.000000 2.500069 1.421582 -54.582257 1.499551 -2.451440 -0.351925 -1.309601 0.288347 0.022209 0.000000 0.000000 0.000000
18.473190 72.891619 288.665666 -0.745945 -0.846276 55.767246 1.119280 -0.140679 -55.771380 -0.000000 0.000000 0.000000 -0.000000 0.000000 0.000000 0.000000 0.000000 0.000000 -0.000000 0.000000 0.000000 -0.000000 0.000000 0.000000 10.586453 -8.555582 -56.915784 1.666194 -13.991996 41.242188 0.000000 0.000000 0.000000 0.000000 0.000000 0.000000 -23.380934 -10.256004 5.530266 -3.870452 -11.504729 -5.336252 -9.288241 2.443664 -4.554796 14.783049 -5.413212 3.955251 0.000000 0.000000 0.000000 0.000000 0.000000 0.000000 -31.067723 -19.275007 -58.839943 9.926133 49.691857 -3.476982 36.304970 -33.618005 31.713652 0.000000 0.000000 0.000000 2.933255 1.197238 -55.390030 1.564324 -2.512249 -0.342765 -1.494226 0.249657 0.011433 0.000000 0.000000 0.000000
18.260957 73.673834 288.785620 -1.022090 -1.040028 57.153605 1.428077 -0.294663 -57.159209 -0.000000 0.000000 0.000000 -0.000000 0.000000 0.000000 0.000000 0.000000 0.000000 -0.000000 0.000000 0.000000 -0.000000 0.000000 0.000000 10.250288 -7.659285 -56.560101 2.598394 -15.014708 41.239360 0.000000 0.000000 0.000000 0.000000 0.000000 0.000000 -24.004670 -10.604518 5.600629 -3.102140 -11.810767 -5.663587 -7.038966 4.497696 -4.238960 14.476129 -7.211008 3.590647 0.000000 0.000000 0.000000 0.000000 0.000000 0.000000 -30.935182 -18.955007 -60.359377 9.500860 50.060741 -3.088074 38.043467 -34.279842 33.249132 0.000000 0.000000 0.000000 3.385241 0.897406 -56.774949 1.533870 -2.480069 -0.322820 -1.609169 0.179708 -0.003739 0.000000 0.000000 0.000000
17.873608 74.436159 289.041643 -1.558236 -1.391228 59.327926 1.991353 -0.630722 -59.335884 -0.000000 0.000000 0.000000 -0.000000 0.000000 0.000000 0.000000 0.000000 0.000000 -0.000000 0.000000 0.000000 -0.000000 0.000000 0.000000 10.212143 -7.523613 -57.083719 2.956968 -16.913403 43.104725 0.000000 0.000000 0.000000 0.000000 0.000000 0.000000 -23.970269 -10.603101 5.589267 -1.498546 -11.695441 -5.825508 -3.107714 5.319496 -4.283879 7.681710 -5.289573 4.562190 0.000000 0.000000 0.000000 0.000000 0.000000 0.000000 -28.841187 -15.870325 -61.275444 11.545920 46.420917 -3.373428 37.342961 -34.255959 32.144664 0.000000 0.000000 0.000000 4.234553 0.197852 -58.948253 1.254551 -2.444318 -0.292861 -1.700980 0.085449 -0.023022 0.000000 0.000000 0.000000
17.984743 75.310127 289.009686 -1.238616 -1.230638 61.904545 0.981024 -0.942507 -61.903110 -0.054725 0.808917 -0.015615 -0.000000 0.000000 0.000000 0.000000 0.000000 0.000000 -0.000000 0.000000 0.000000 -0.000000 0.000000 0.000000 10.525850 -8.341296 -58.142704 2.993609 -18.109417 44.478484 0.000000 0.000000 0.000000 0.000000 0.000000 0.000000 -24.135543 -10.834794 5.547745 0.596272 -10.766581 -5.915823 2.064500 6.951150 -4.448140 2.410171 -4.822710 4.538171 0.000000 0.000000 0.000000 0.000000 0.000000 0.000000 -28.038632 -14.059554 -63.398765 10.052276 44.240001 -2.461520 36.794543 -33.496681 30.968277 0.000000 0.000000 0.000000 3.290172 0.387118 -61.583607 1.841011 -1.879453 -0.226741 -0.996243 -0.412052 -0.270982 0.000000 0.000000 0.000000
18.471254 75.892993 288.633598 -0.334696 -0.479327 63.486129 0.578325 -0.085521 -63.487098 -0.000000 0.000000 0.000000 -0.000000 0.000000 0.000000 0.000000 0.000000 0.000000 -0.000000 0.000000 0.000000 -0.000000 0.000000 0.000000 11.035335 -9.773995 -59.324885 2.547714 -18.834339 45.681218 0.000000 0.000000 0.000000 0.000000 0.000000 0.000000 -23.515127 -10.607165 5.429532 2.507312 -9.642524 -5.786875 7.131630 8.421296 -4.611852 -4.206505 -3.808213 4.431968 0.000000 0.000000 0.000000 0.000000 0.000000 0.000000 -28.517686 -13.074438 -64.761740 7.435168 42.983543 -1.676110 32.597407 -31.427300 26.434603 0.000000 0.000000 0.000000 1.200801 1.201851 -63.234944 2.767039 -1.105836 -0.163224 -0.534382 -0.825646 -0.389445 0.000000 0.000000 0.000000
